<svg width="41" height="14" viewBox="0 0 41 14" fill="none" xmlns="http://www.w3.org/2000/svg">
<g clip-path="url(#clip0_9699_4899)">
<path d="M22.0991 3.98726C23.0033 3.08307 23.0033 1.61707 22.0991 0.712877C21.1949 -0.19132 19.7289 -0.19132 18.8247 0.712877L9.52535 10.0122C8.62116 10.9164 8.62116 12.3824 9.52536 13.2866C10.4296 14.1908 11.8955 14.1908 12.7997 13.2866L22.0991 3.98726Z" fill="#3F83E7"/>
<path d="M39.8218 13.2862C39.6068 13.5013 39.3515 13.6719 39.0706 13.7883C38.7896 13.9047 38.4885 13.9646 38.1844 13.9646C37.8803 13.9646 37.5792 13.9047 37.2982 13.7883C37.0173 13.6719 36.762 13.5013 36.547 13.2862L29.3081 6.04728C29.186 5.92525 29.0205 5.8567 28.8479 5.8567C28.6753 5.8567 28.5097 5.92525 28.3877 6.04728L21.1487 13.2862C20.7128 13.7119 20.1266 13.9485 19.5174 13.9449C18.9081 13.9413 18.3248 13.6976 17.894 13.2668C17.4631 12.836 17.2195 12.2527 17.2159 11.6434C17.2122 11.0341 17.4489 10.448 17.8746 10.0121L27.1737 0.712947C27.6228 0.278659 28.2231 0.0358887 28.8479 0.0358887C29.4726 0.0358887 30.0729 0.278659 30.522 0.712947L39.8218 10.0121C40.2559 10.4463 40.4998 11.0351 40.4998 11.6491C40.4998 12.2631 40.2559 12.852 39.8218 13.2862Z" fill="#304E6F"/>
<path d="M13.7517 3.98726C14.6559 3.08307 14.6559 1.61707 13.7517 0.712877C12.8475 -0.19132 11.3815 -0.19132 10.4773 0.712877L1.17794 10.0122C0.273745 10.9164 0.273746 12.3824 1.17794 13.2866C2.08214 14.1908 3.54813 14.1908 4.45233 13.2866L13.7517 3.98726Z" fill="#67A6EB"/>
<path d="M31.0938 11.0263L29.3084 9.24091C29.0542 8.98671 28.6421 8.98671 28.3879 9.24091L26.6025 11.0263C26.3483 11.2805 26.3483 11.6927 26.6025 11.9469L28.3879 13.7323C28.6421 13.9865 29.0542 13.9865 29.3084 13.7323L31.0938 11.9469C31.348 11.6927 31.348 11.2805 31.0938 11.0263Z" fill="#304E6F"/>
</g>
<defs>
<clipPath id="clip0_9699_4899">
<rect width="40" height="13.9304" fill="white" transform="translate(0.5 0.03479)"/>
</clipPath>
</defs>
</svg>
