<svg width="16" height="12" viewBox="0 0 16 12" fill="none" xmlns="http://www.w3.org/2000/svg">
<path fill-rule="evenodd" clip-rule="evenodd" d="M7.2957 0.166748H8.70426C9.92943 0.166738 10.8999 0.166729 11.6593 0.268838C12.4409 0.373924 13.0736 0.595335 13.5725 1.09424C14.0714 1.59315 14.2928 2.22579 14.3979 3.0074C14.4988 3.75791 14.5 4.71442 14.5 5.9192C14.7293 6.10835 14.9113 6.3522 15.0271 6.63183C15.1073 6.82542 15.1384 7.02511 15.1528 7.23651C15.1667 7.43958 15.1667 7.68694 15.1666 7.98324V8.01692C15.1667 8.31323 15.1667 8.56059 15.1528 8.76366C15.1384 8.97506 15.1073 9.17474 15.0271 9.36834C14.841 9.81755 14.4841 10.1745 14.0349 10.3605C13.8413 10.4407 13.6416 10.4718 13.4302 10.4862C13.3495 10.4917 13.2617 10.4951 13.1666 10.4971V11.3334C13.1666 11.6096 12.9428 11.8334 12.6666 11.8334C12.3905 11.8334 12.1666 11.6096 12.1666 11.3334V10.5001H3.83331V11.3334C3.83331 11.6096 3.60946 11.8334 3.33331 11.8334C3.05717 11.8334 2.83331 11.6096 2.83331 11.3334V10.4971C2.73826 10.4951 2.65049 10.4917 2.56974 10.4862C2.35834 10.4718 2.15865 10.4407 1.96506 10.3605C1.51584 10.1745 1.15894 9.81755 0.972868 9.36834C0.892679 9.17474 0.861584 8.97506 0.84716 8.76366C0.833304 8.56058 0.833308 8.31322 0.833313 8.01692V7.98325C0.833308 7.68694 0.833304 7.43958 0.84716 7.23651C0.861584 7.02511 0.892679 6.82542 0.972868 6.63183C1.08869 6.3522 1.27071 6.10835 1.49998 5.9192C1.49998 4.71442 1.50117 3.75791 1.60207 3.0074C1.70716 2.22579 1.92857 1.59315 2.42748 1.09424C2.92638 0.595335 3.55902 0.373924 4.34063 0.268838C5.10011 0.166729 6.07053 0.166738 7.2957 0.166748ZM2.50024 5.51935C2.52327 5.51731 2.54643 5.51552 2.56974 5.51393C2.73758 5.50248 2.93567 5.50049 3.16665 5.50015L3.16665 4.96541C3.16663 4.36643 3.16661 3.86695 3.21992 3.47043C3.27619 3.0519 3.39997 2.67403 3.70362 2.37039C4.00726 2.06674 4.38513 1.94296 4.80366 1.88669C5.20018 1.83338 5.69966 1.83339 6.29865 1.83341H9.70131C10.3003 1.83339 10.7998 1.83338 11.1963 1.88669C11.6148 1.94296 11.9927 2.06674 12.2963 2.37039C12.6 2.67403 12.7238 3.0519 12.78 3.47043C12.8334 3.86695 12.8333 4.36643 12.8333 4.96542V5.50015C13.0643 5.50049 13.2624 5.50248 13.4302 5.51393C13.4535 5.51552 13.4767 5.51731 13.4997 5.51935C13.4981 4.49611 13.4869 3.73605 13.4068 3.14065C13.3166 2.46992 13.1475 2.08349 12.8654 1.80135C12.5832 1.51921 12.1968 1.3501 11.5261 1.25992C10.841 1.16781 9.93786 1.16675 8.66665 1.16675H7.33331C6.0621 1.16675 5.15899 1.16781 4.47388 1.25992C3.80315 1.3501 3.41672 1.51921 3.13458 1.80135C2.85244 2.08349 2.68333 2.46992 2.59315 3.14065C2.5131 3.73605 2.50182 4.49611 2.50024 5.51935ZM11.8333 5.50008V5.00008C11.8333 4.35741 11.8323 3.9257 11.789 3.60368C11.7476 3.29604 11.6761 3.16437 11.5892 3.07749C11.5024 2.99062 11.3707 2.91913 11.0631 2.87777C10.741 2.83448 10.3093 2.83342 9.66665 2.83342H8.49998V5.50008H11.8333ZM7.49998 5.50008V2.83342H6.33331C5.69064 2.83342 5.25893 2.83448 4.93691 2.87777C4.62927 2.91913 4.4976 2.99062 4.41072 3.07749C4.32385 3.16437 4.25236 3.29604 4.211 3.60368C4.16771 3.9257 4.16665 4.35741 4.16665 5.00008V5.50008H7.49998ZM2.63781 6.51161C2.47732 6.52256 2.39918 6.54221 2.34774 6.56352C2.14355 6.64809 1.98133 6.81032 1.89675 7.01451C1.87544 7.06595 1.85579 7.14409 1.84484 7.30458C1.83358 7.46955 1.83331 7.68261 1.83331 8.00008C1.83331 8.31755 1.83358 8.53061 1.84484 8.69559C1.85579 8.85607 1.87544 8.93422 1.89675 8.98565C1.98133 9.18984 2.14355 9.35207 2.34774 9.43665C2.39918 9.45795 2.47732 9.47761 2.63781 9.48856C2.80278 9.49981 3.01584 9.50008 3.33331 9.50008H12.6666C12.9841 9.50008 13.1972 9.49981 13.3622 9.48856C13.5226 9.47761 13.6008 9.45795 13.6522 9.43665C13.8564 9.35207 14.0186 9.18984 14.1032 8.98565C14.1245 8.93422 14.1442 8.85607 14.1551 8.69559C14.1664 8.53061 14.1666 8.31755 14.1666 8.00008C14.1666 7.68261 14.1664 7.46955 14.1551 7.30458C14.1442 7.14409 14.1245 7.06595 14.1032 7.01451C14.0186 6.81032 13.8564 6.64809 13.6522 6.56352C13.6008 6.54221 13.5226 6.52256 13.3622 6.51161C13.1972 6.50035 12.9841 6.50008 12.6666 6.50008H3.33331C3.01584 6.50008 2.80278 6.50035 2.63781 6.51161Z" fill="#444A50"/>
</svg>
