<svg width="17" height="16" viewBox="0 0 17 16" fill="none" xmlns="http://www.w3.org/2000/svg">
<path fill-rule="evenodd" clip-rule="evenodd" d="M4.75489 2.27124C5.87493 1.15119 7.76503 1.23634 8.5449 2.63375L8.97758 3.40904C9.48686 4.32159 9.26983 5.47297 8.5243 6.22762C8.51437 6.24122 8.46175 6.31785 8.45519 6.45172C8.44682 6.6226 8.50751 7.01779 9.1198 7.63007C9.73188 8.24216 10.127 8.303 10.298 8.29468C10.432 8.28817 10.5086 8.23551 10.5223 8.22557C11.2769 7.48004 12.4283 7.26302 13.3408 7.77229L14.1161 8.20497C15.5135 8.98485 15.5987 10.8749 14.4786 11.995C13.8795 12.5941 13.0829 13.1264 12.1468 13.1619C10.7595 13.2145 8.45601 12.8562 6.17482 10.5751C3.89363 8.29387 3.53537 5.99038 3.58796 4.60309C3.62345 3.66696 4.15578 2.87035 4.75489 2.27124ZM7.67169 3.12108C7.27234 2.40552 6.19921 2.24113 5.46199 2.97835C4.94509 3.49524 4.60905 4.06579 4.58724 4.64097C4.54339 5.79787 4.82901 7.81504 6.88192 9.86795C8.93483 11.9209 10.952 12.2065 12.1089 12.1626C12.6841 12.1408 13.2546 11.8048 13.7715 11.2879C14.5087 10.5507 14.3444 9.47753 13.6288 9.07819L12.8535 8.64551C12.3712 8.37636 11.6938 8.46817 11.2183 8.9437L11.2181 8.94385C11.1714 8.99053 10.8742 9.26784 10.3466 9.2935C9.80641 9.31978 9.15259 9.07708 8.41269 8.33718C7.67255 7.59704 7.42994 6.94304 7.45639 6.40282C7.48222 5.87514 7.7597 5.57807 7.80614 5.53164L7.80616 5.53162C8.2817 5.05607 8.37351 4.37865 8.10436 3.89637L7.67169 3.12108Z" fill="#B9BBBD"/>
</svg>
