<svg width="12" height="16" viewBox="0 0 12 16" fill="none" xmlns="http://www.w3.org/2000/svg">
<path d="M9.83335 4.66659C9.83335 4.39044 9.6095 4.16659 9.33335 4.16659C9.05721 4.16659 8.83335 4.39044 8.83335 4.66659V5.99992C8.83335 6.27606 9.05721 6.49992 9.33335 6.49992C9.6095 6.49992 9.83335 6.27606 9.83335 5.99992V4.66659Z" fill="#444A50"/>
<path d="M9.83335 9.33325C9.83335 9.05711 9.6095 8.83325 9.33335 8.83325C9.05721 8.83325 8.83335 9.05711 8.83335 9.33325V10.6666C8.83335 10.9427 9.05721 11.1666 9.33335 11.1666C9.6095 11.1666 9.83335 10.9427 9.83335 10.6666V9.33325Z" fill="#444A50"/>
<path fill-rule="evenodd" clip-rule="evenodd" d="M6.03763 0.833252H5.96241C4.73724 0.833242 3.76681 0.833233 3.00734 0.935342C2.22572 1.04043 1.59309 1.26184 1.09418 1.76075C0.595274 2.25966 0.373863 2.89229 0.268777 3.6739C0.166668 4.43338 0.166677 5.4038 0.166687 6.62897V8.7042C0.166677 9.92937 0.166668 10.8998 0.268777 11.6593C0.373863 12.4409 0.595274 13.0735 1.09418 13.5724C1.4002 13.8784 1.75653 14.0801 2.16669 14.2145V14.6666C2.16669 14.9427 2.39054 15.1666 2.66669 15.1666H3.33335C3.6095 15.1666 3.83335 14.9427 3.83335 14.6666V14.4694C4.43786 14.4999 5.14318 14.4999 5.96238 14.4999H6.03763C6.85684 14.4999 7.56218 14.4999 8.16669 14.4694V14.6666C8.16669 14.9427 8.39054 15.1666 8.66669 15.1666H9.33335C9.6095 15.1666 9.83335 14.9427 9.83335 14.6666V14.2145C10.2435 14.0801 10.5998 13.8784 10.9059 13.5724C11.4048 13.0735 11.6262 12.4409 11.7313 11.6593C11.8334 10.8998 11.8334 9.92939 11.8334 8.70422V6.62898C11.8334 5.40382 11.8334 4.43337 11.7313 3.6739C11.6262 2.89229 11.4048 2.25966 10.9059 1.76075C10.4069 1.26184 9.77432 1.04043 8.9927 0.935342C8.23323 0.833233 7.2628 0.833242 6.03763 0.833252ZM1.80129 2.46785C2.08343 2.18571 2.46986 2.0166 3.14059 1.92643C3.8257 1.83431 4.72881 1.83325 6.00002 1.83325C7.27123 1.83325 8.17435 1.83431 8.85946 1.92643C9.53018 2.0166 9.91661 2.18571 10.1988 2.46785C10.4809 2.74999 10.65 3.13643 10.7402 3.80715C10.8323 4.49226 10.8334 5.39537 10.8334 6.66659V7.16659H1.16669V6.66659C1.16669 5.39537 1.16775 4.49226 1.25986 3.80715C1.35004 3.13643 1.51915 2.74999 1.80129 2.46785ZM1.16669 8.16659H10.8334V8.66659C10.8334 9.9378 10.8323 10.8409 10.7402 11.526C10.65 12.1967 10.4809 12.5832 10.1988 12.8653C9.91661 13.1475 9.53018 13.3166 8.85946 13.4067C8.17435 13.4989 7.27123 13.4999 6.00002 13.4999C4.72881 13.4999 3.8257 13.4989 3.14059 13.4067C2.46986 13.3166 2.08343 13.1475 1.80129 12.8653C1.51915 12.5832 1.35004 12.1967 1.25986 11.526C1.16775 10.8409 1.16669 9.9378 1.16669 8.66659V8.16659Z" fill="#444A50"/>
</svg>
